<svg id="visual" viewBox="0 0 900 600" width="900" height="600" xmlns="http://www.w3.org/2000/svg" xmlns:xlink="http://www.w3.org/1999/xlink" version="1.1"><g transform="translate(428.2255621849141 290.50020019065107)"><path d="M92.1 -112.7C127.8 -100.8 170.9 -85.2 191.5 -54.5C212.1 -23.8 210.2 21.9 194.4 60.9C178.6 99.9 149 132 114.3 147.6C79.5 163.2 39.8 162.1 3.8 156.8C-32.1 151.6 -64.3 142.1 -86.9 122.7C-109.6 103.2 -122.8 73.7 -137.2 41.7C-151.5 9.7 -167.1 -24.8 -162.1 -56.6C-157.2 -88.4 -131.8 -117.4 -101.4 -130.9C-70.9 -144.5 -35.5 -142.6 -3.6 -137.6C28.2 -132.6 56.4 -124.5 92.1 -112.7" fill="#c1c1c1"></path></g></svg>